<svg width="180" height="52" viewBox="0 0 180 52" fill="none" xmlns="http://www.w3.org/2000/svg">
<g id="Badge/App Store">
<rect width="180" height="52" rx="4" fill="#E0E0E0"/>
<path id="App Store" fill-rule="evenodd" clip-rule="evenodd" d="M68.2737 32.943H63.0573L61.8046 36.7155H59.5951L64.536 22.7581H66.8316L71.7725 36.7155H69.5253L68.2737 32.943ZM63.5976 31.2021H67.7324L65.6941 25.0796H65.637L63.5976 31.2021ZM82.4432 31.628C82.4432 34.7903 80.7836 36.822 78.2793 36.822C76.9848 36.891 75.7655 36.1995 75.14 35.0416H75.0926V40.0819H73.0445V26.5394H75.027V28.232H75.0646C75.7179 27.0813 76.9386 26.3901 78.2416 26.433C80.7739 26.433 82.4432 28.4745 82.4432 31.628ZM80.3381 31.628C80.3381 29.5678 79.2941 28.2133 77.7013 28.2133C76.1365 28.2133 75.084 29.5963 75.084 31.628C75.084 33.6784 76.1365 35.0515 77.7013 35.0515C79.2942 35.0515 80.3381 33.7069 80.3381 31.628ZM93.4248 31.628C93.4248 34.7903 91.7653 36.822 89.261 36.822C87.9665 36.891 86.7472 36.1995 86.1217 35.0416H86.0743V40.0819H84.0262V26.5394H86.0086V28.232H86.0463C86.6996 27.0813 87.9202 26.3901 89.2233 26.433C91.7556 26.433 93.4248 28.4745 93.4248 31.628ZM91.3198 31.628C91.3198 29.5678 90.2758 28.2133 88.683 28.2133C87.1182 28.2133 86.0657 29.5963 86.0657 31.628C86.0657 33.6784 87.1182 35.0515 88.683 35.0515C90.2758 35.0515 91.3198 33.7069 91.3198 31.628ZM100.683 32.8266C100.835 34.2107 102.153 35.1195 103.955 35.1195C105.681 35.1195 106.923 34.2107 106.923 32.9627C106.923 31.8793 106.174 31.2306 104.4 30.7861L102.626 30.3503C100.114 29.7313 98.9469 28.5327 98.9469 26.5877C98.9469 24.1795 101.005 22.5254 103.927 22.5254C106.818 22.5254 108.801 24.1795 108.867 26.5877H106.8C106.676 25.1948 105.547 24.354 103.897 24.354C102.248 24.354 101.119 25.2047 101.119 26.4428C101.119 27.4296 101.84 28.0102 103.604 28.4547L105.111 28.8323C107.919 29.5095 109.086 30.6598 109.086 32.7014C109.086 35.3126 107.046 36.9481 103.803 36.9481C100.768 36.9481 98.7187 35.351 98.5863 32.8265L100.683 32.8266ZM113.506 24.1313V26.5394H115.403V28.1936H113.506V33.8035C113.506 34.675 113.886 35.0811 114.72 35.0811C114.945 35.0771 115.17 35.061 115.394 35.0328V36.677C115.019 36.7485 114.637 36.7809 114.256 36.7736C112.236 36.7736 111.448 35.9998 111.448 34.0263V28.1936H109.997V26.5394H111.448V24.1313H113.506ZM116.502 31.628C116.502 28.4263 118.351 26.4143 121.234 26.4143C124.127 26.4143 125.967 28.4262 125.967 31.628C125.967 34.8386 124.137 36.8417 121.234 36.8417C118.333 36.8417 116.502 34.8386 116.502 31.628ZM123.881 31.628C123.881 29.4317 122.894 28.1354 121.234 28.1354C119.575 28.1354 118.589 29.4416 118.589 31.628C118.589 33.8331 119.575 35.1196 121.234 35.1196C122.894 35.1196 123.881 33.8331 123.881 31.628ZM127.656 26.5394H129.609V28.2715H129.657C129.929 27.1565 130.931 26.3891 132.057 26.433C132.293 26.4321 132.528 26.4583 132.758 26.5109V28.4647C132.46 28.3718 132.15 28.3292 131.838 28.3384C131.236 28.3135 130.653 28.5583 130.243 29.0084C129.833 29.4585 129.636 30.069 129.704 30.6797V36.7155H127.656L127.656 26.5394ZM142.201 33.7267C141.926 35.5739 140.162 36.8417 137.905 36.8417C135.002 36.8417 133.201 34.8583 133.201 31.6763C133.201 28.4844 135.012 26.4143 137.819 26.4143C140.579 26.4143 142.315 28.3483 142.315 31.4337V32.1494H135.268V32.2756C135.202 33.0332 135.459 33.7831 135.972 34.3346C136.486 34.886 137.207 35.1859 137.952 35.1579C138.946 35.2529 139.883 34.6709 140.256 33.7266L142.201 33.7267ZM135.278 30.6896L140.266 30.6895C140.303 30.0088 140.06 29.3431 139.596 28.8528C139.131 28.3626 138.487 28.0922 137.819 28.1068C137.145 28.1027 136.498 28.3733 136.021 28.8582C135.543 29.3432 135.276 30.0025 135.278 30.6896ZM63.3409 12.2523C64.2103 12.1887 65.0619 12.5261 65.6613 13.1716C66.2607 13.8171 66.5446 14.7027 66.435 15.5847C66.435 17.7272 65.2996 18.9588 63.3409 18.9588H60.9657V12.2523H63.3409ZM61.987 18.0104H63.2268C63.8482 18.0483 64.4532 17.7986 64.8739 17.3307C65.2945 16.8628 65.4861 16.2264 65.3954 15.5984C65.4795 14.9729 65.2852 14.3418 64.8655 13.8777C64.4459 13.4136 63.8449 13.1651 63.2268 13.2001H61.987V18.0104ZM67.5887 16.426C67.5036 15.5188 67.9301 14.6409 68.6893 14.1604C69.4486 13.6798 70.4093 13.6798 71.1685 14.1604C71.9277 14.6409 72.3542 15.5188 72.2692 16.426C72.3559 17.3341 71.9297 18.2138 71.1698 18.6953C70.4099 19.1769 69.4479 19.1769 68.688 18.6953C67.9281 18.2138 67.502 17.3341 67.5887 16.426ZM71.2618 16.426C71.2618 15.3289 70.7786 14.6874 69.9305 14.6874C69.0793 14.6874 68.6004 15.3289 68.6004 16.426C68.6004 17.5318 69.0793 18.1685 69.9305 18.1685C70.7786 18.1684 71.2618 17.5274 71.2618 16.426ZM78.4908 18.9587H77.4748L76.4492 15.2312H76.3717L75.3504 18.9587H74.3441L72.9762 13.8976H73.9696L74.8585 17.7595H74.9317L75.952 13.8976H76.8915L77.9118 17.7595H77.9892L78.8739 13.8976H79.8532L78.4908 18.9587ZM81.0037 13.8976H81.9465V14.7016H82.0197C82.2742 14.1096 82.8689 13.7475 83.5005 13.7999C83.9896 13.7624 84.4689 13.9538 84.8031 14.32C85.1372 14.6862 85.29 15.1875 85.2182 15.6823V18.9587H84.2388V15.9331C84.2388 15.1198 83.8923 14.7153 83.168 14.7153C82.8362 14.6996 82.5143 14.8324 82.2865 15.0789C82.0588 15.3254 81.9479 15.6611 81.9831 15.9979V18.9587H81.0037L81.0037 13.8976ZM86.7787 11.9219H87.758V18.9587H86.7787V11.9219ZM89.1194 16.426C89.0344 15.5188 89.461 14.6408 90.2203 14.1603C90.9796 13.6798 91.9403 13.6798 92.6996 14.1603C93.4589 14.6408 93.8855 15.5188 93.8004 16.426C93.887 17.3342 93.4608 18.2138 92.7009 18.6953C91.941 19.1768 90.9789 19.1768 90.219 18.6953C89.459 18.2138 89.0328 17.3342 89.1194 16.426ZM92.7926 16.426C92.7926 15.3289 92.3093 14.6874 91.4613 14.6874C90.61 14.6874 90.1311 15.3289 90.1311 16.426C90.1311 17.5318 90.61 18.1685 91.4613 18.1685C92.3093 18.1684 92.7926 17.5274 92.7926 16.426ZM94.8315 17.5274C94.8315 16.6164 95.4966 16.0912 96.6772 16.0166L98.0214 15.9375V15.5007C98.0214 14.9661 97.6748 14.6643 97.0054 14.6643C96.4587 14.6643 96.0799 14.869 95.9712 15.2268H95.023C95.1231 14.3575 95.9249 13.7999 97.0506 13.7999C98.2947 13.7999 98.9964 14.4316 98.9964 15.5007V18.9587H98.0536V18.2475H97.9762C97.656 18.7669 97.0865 19.0705 96.4856 19.0421C96.0643 19.0868 95.6442 18.9477 95.329 18.6591C95.0139 18.3705 94.8331 17.9594 94.8315 17.5274ZM98.0214 17.095V16.6718L96.8095 16.7509C96.1261 16.7975 95.8162 17.0346 95.8162 17.4808C95.8162 17.9363 96.2036 18.2014 96.7364 18.2014C97.0518 18.2339 97.3666 18.1346 97.6089 17.926C97.8511 17.7174 97.9999 17.4175 98.0214 17.095ZM100.284 16.426C100.284 14.8267 101.09 13.8136 102.343 13.8136C102.977 13.7839 103.569 14.1299 103.865 14.7016H103.938V11.9219H104.918V18.9587H103.979V18.1591H103.902C103.584 18.7261 102.983 19.0662 102.343 19.0421C101.081 19.0422 100.284 18.0291 100.284 16.426ZM101.295 16.426C101.295 17.4995 101.791 18.1454 102.621 18.1454C103.447 18.1454 103.957 17.4901 103.957 16.4304C103.957 15.3756 103.441 14.7109 102.621 14.7109C101.797 14.7109 101.295 15.3613 101.295 16.426ZM108.97 16.426C108.885 15.5188 109.311 14.6409 110.07 14.1604C110.83 13.6798 111.79 13.6798 112.549 14.1604C113.309 14.6409 113.735 15.5188 113.65 16.426C113.737 17.3341 113.311 18.2138 112.551 18.6953C111.791 19.1769 110.829 19.1769 110.069 18.6953C109.309 18.2138 108.883 17.3341 108.97 16.426ZM112.643 16.426C112.643 15.3289 112.16 14.6874 111.312 14.6874C110.46 14.6874 109.981 15.3289 109.981 16.426C109.981 17.5318 110.46 18.1685 111.312 18.1685C112.16 18.1684 112.643 17.5274 112.643 16.426ZM114.964 13.8976H115.907V14.7016H115.98C116.235 14.1096 116.829 13.7475 117.461 13.7999C117.95 13.7624 118.429 13.9538 118.764 14.32C119.098 14.6862 119.25 15.1875 119.179 15.6823V18.9587H118.199V15.9331C118.199 15.1198 117.853 14.7153 117.128 14.7153C116.797 14.6996 116.475 14.8324 116.247 15.0789C116.019 15.3254 115.908 15.6611 115.944 15.9979V18.9587H114.964V13.8976ZM124.713 12.6375V13.9207H125.788V14.762H124.713V17.3644C124.713 17.8946 124.927 18.1267 125.414 18.1267C125.539 18.1263 125.664 18.1186 125.788 18.1037V18.9357C125.612 18.9678 125.434 18.9848 125.255 18.9867C124.166 18.9867 123.732 18.596 123.732 17.6202V14.7619H122.944V13.9206H123.732V12.6375H124.713ZM127.125 11.9219H128.096V14.7109H128.174C128.44 14.1138 129.045 13.7512 129.687 13.8043C130.173 13.7773 130.646 13.9729 130.976 14.3378C131.307 14.7026 131.461 15.1988 131.396 15.6911V18.9587H130.415V15.9375C130.415 15.1291 130.046 14.7197 129.354 14.7197C129.014 14.6912 128.678 14.8175 128.437 15.0649C128.196 15.3123 128.075 15.6555 128.105 16.0028V18.9587H127.125L127.125 11.9219ZM137.106 17.5922C136.832 18.5469 135.926 19.1637 134.956 19.0564C134.294 19.0742 133.658 18.7945 133.217 18.2914C132.775 17.7884 132.573 17.1128 132.664 16.4441C132.576 15.7735 132.777 15.0969 133.216 14.5895C133.655 14.0822 134.288 13.7941 134.952 13.7999C136.332 13.7999 137.165 14.762 137.165 16.3513V16.6998H133.661V16.7558C133.63 17.1314 133.756 17.5029 134.008 17.7789C134.259 18.0549 134.613 18.2099 134.983 18.2057C135.462 18.2644 135.928 18.022 136.163 17.5922L137.106 17.5922ZM133.661 15.9611H136.168C136.193 15.6176 136.074 15.2794 135.842 15.0297C135.609 14.78 135.284 14.6421 134.946 14.65C134.604 14.6456 134.275 14.7824 134.033 15.0292C133.791 15.2761 133.657 15.6121 133.661 15.9611ZM48.4311 26.1485C48.4336 28.5065 49.8495 30.6344 52.0271 31.553C51.6083 32.9098 50.977 34.192 50.1567 35.3521C49.0549 36.9958 47.8998 38.6015 46.0663 38.6312C44.2848 38.6722 43.6861 37.5856 41.6428 37.5856C39.5803 37.5856 38.9422 38.6015 37.2335 38.6722C35.4874 38.7367 34.153 36.918 33.0112 35.2898C30.7291 31.9647 28.9521 25.9191 31.3344 21.8055C32.4532 19.8006 34.5449 18.5284 36.8444 18.4543C38.592 18.4184 40.215 19.6314 41.2895 19.6314C42.3436 19.6314 44.349 18.1804 46.4175 18.3969C48.3837 18.4583 50.2057 19.4407 51.334 21.0477C49.5536 22.1393 48.458 24.0644 48.4311 26.1485ZM45.0661 16.2101C44.0963 17.4132 42.6267 18.1061 41.079 18.0902C40.9805 16.5818 41.4874 15.0962 42.4878 13.9607C43.501 12.8098 44.9118 12.0819 46.4391 11.9219C46.5583 13.475 46.0658 15.0133 45.0661 16.2101Z" fill="#828282"/>
</g>
</svg>
