<svg width="14" height="15" viewBox="0 0 14 15" fill="none" xmlns="http://www.w3.org/2000/svg">
<g id="carbon:email">
<path id="Vector" d="M12.25 3.125H1.75C1.51794 3.125 1.29538 3.21719 1.13128 3.38128C0.967187 3.54538 0.875 3.76794 0.875 4V11C0.875 11.2321 0.967187 11.4546 1.13128 11.6187C1.29538 11.7828 1.51794 11.875 1.75 11.875H12.25C12.4821 11.875 12.7046 11.7828 12.8687 11.6187C13.0328 11.4546 13.125 11.2321 13.125 11V4C13.125 3.76794 13.0328 3.54538 12.8687 3.38128C12.7046 3.21719 12.4821 3.125 12.25 3.125ZM11.2875 4L7 6.96625L2.7125 4H11.2875ZM1.75 11V4.39812L6.75063 7.85875C6.82386 7.90956 6.91087 7.93678 7 7.93678C7.08913 7.93678 7.17614 7.90956 7.24937 7.85875L12.25 4.39812V11H1.75Z" fill="white"/>
</g>
</svg>
