<svg width="45" height="44" viewBox="0 0 45 44" fill="none" xmlns="http://www.w3.org/2000/svg">
<g id="Group 34860">
<path id="Vector" d="M41.5313 8.13172L41.531 8.1317L36.0985 7.64035L35.5975 7.59504L35.3993 7.13273L33.2529 2.12657C33.2529 2.12647 33.2528 2.12636 33.2528 2.12626C33.2276 2.06807 33.1716 2.0309 33.1069 2.0309C33.0415 2.0309 32.9865 2.06848 32.9624 2.12479L32.9622 2.12519L30.8153 7.13273L30.6171 7.59505L30.1161 7.64035L24.6839 8.13158C24.6838 8.13159 24.6837 8.1316 24.6836 8.13161C24.6202 8.13757 24.5678 8.17961 24.548 8.23863C24.5295 8.29656 24.5468 8.3595 24.5931 8.40006C24.5932 8.40007 24.5932 8.40009 24.5932 8.40011L28.6997 11.9874L29.0791 12.3188L28.9672 12.8099L27.7565 18.1218C27.7565 18.122 27.7565 18.1221 27.7564 18.1222C27.7427 18.1835 27.7661 18.244 27.8158 18.2798L27.8175 18.281C27.8447 18.3007 27.8761 18.3106 27.9095 18.3106C27.9376 18.3106 27.9653 18.3033 27.9905 18.2882L27.9908 18.2881L32.6752 15.4977L33.1069 15.2406L33.5385 15.4977L38.2219 18.288L41.5313 8.13172ZM41.5313 8.13172C41.5944 8.13741 41.6461 8.17925 41.6652 8.23719M41.5313 8.13172L41.6652 8.23719M41.6652 8.23719C41.6845 8.29632 41.6672 8.35914 41.6206 8.40006L41.6652 8.23719ZM41.6204 8.40024L37.514 11.9874L37.1346 12.3188L37.2466 12.8099L38.4572 18.1218C38.4572 18.122 38.4572 18.1221 38.4573 18.1222C38.471 18.1835 38.4476 18.244 38.3979 18.2798L38.3972 18.2803C38.3455 18.3176 38.2771 18.3207 38.2221 18.2881L41.6204 8.40024Z" stroke="#BF151E" stroke-width="1.6868"/>
<g id="Group 34859">
<path id="Vector_2" d="M17.5915 10.6633C15.5738 11.4998 13.8335 12.8318 12.526 14.4953L3.89687 11.8875C6.76181 6.98215 11.6969 3.30454 17.5915 1.95745V10.6633Z" stroke="#BF151E" stroke-width="2.1085"/>
<path id="Vector_3" d="M25.7769 41.8477V33.3782C29.5035 32.4349 32.5746 29.8994 34.1038 26.5386H43.3148C41.2928 34.4561 34.3888 40.6076 25.7769 41.8477Z" stroke="#BF151E" stroke-width="2.1085"/>
<path id="Vector_4" d="M1.57119 18.0558L10.0461 20.6169C10.0081 20.9784 9.98644 21.348 9.98644 21.7257C9.98644 27.2218 13.8261 31.8161 19.0039 33.288V41.7809C8.8825 40.1527 1.20855 31.7489 1.20855 21.7257C1.20855 20.4741 1.33688 19.2496 1.57119 18.0558Z" stroke="#BF151E" stroke-width="2.1085"/>
</g>
</g>
</svg>
