<svg width="51" height="39" viewBox="0 0 51 39" fill="none" xmlns="http://www.w3.org/2000/svg">
<g id="hotspot-tower-icon 1" clip-path="url(#clip0_157_2012)">
<g id="Group">
<path id="Vector" d="M8.89842 36.6929C9.2855 37.1723 9.2402 37.8785 8.779 38.2809C8.31781 38.6832 7.63836 38.6361 7.25129 38.1567C2.5693 32.4726 0.15625 26.0351 0.2139 19.5206C0.275667 13.1601 2.6599 6.76543 7.56424 0.931458C7.95132 0.469192 8.63076 0.422109 9.09196 0.824452C9.53669 1.2268 9.58198 1.93304 9.19491 2.41242C4.64469 7.81409 2.42106 13.7123 2.37988 19.5334C2.33459 25.5086 4.55822 31.4239 8.89842 36.6929ZM14.5563 31.2227C14.9558 31.685 14.9105 32.3913 14.4657 32.8107C14.021 33.2259 13.3416 33.1788 12.938 32.7166C9.33903 28.4834 7.486 23.9977 7.56012 19.4564C7.63425 15.0349 9.5161 10.6005 13.3539 6.36737C13.7698 5.92222 14.4493 5.88798 14.8816 6.32029C15.314 6.75259 15.3428 7.45883 14.9269 7.90826C11.4762 11.7262 9.7714 15.6384 9.70964 19.4906C9.65199 23.4627 11.3115 27.439 14.5399 31.2399L14.5563 31.2227ZM19.5636 26.018C19.9342 26.4974 19.8766 27.2036 19.3989 27.5888C18.9377 27.974 18.2583 27.9141 17.8877 27.4176C15.9482 24.9393 14.9393 22.2428 14.9228 19.5034C14.9063 16.8411 15.8699 14.1574 17.8424 11.6492C18.213 11.1698 18.8924 11.0928 19.3536 11.478C19.8148 11.8632 19.8889 12.5694 19.5183 13.0488C17.8753 15.1419 17.0723 17.3462 17.0723 19.4863C17.0723 21.6906 17.933 23.9078 19.5472 25.9837L19.5636 26.018ZM43.7765 38.1525C43.3894 38.6318 42.71 38.6747 42.2488 38.2766C41.7876 37.8742 41.7464 37.168 42.1294 36.6886C46.4696 31.4196 48.7097 25.4915 48.6479 19.5334C48.6026 13.7123 46.379 7.81409 41.8329 2.40814C41.4458 1.94588 41.4911 1.23964 41.9358 0.820172C42.3806 0.417829 43.06 0.464912 43.4636 0.927178C48.3679 6.76543 50.7521 13.1558 50.8139 19.5163C50.8716 26.0351 48.4585 32.4726 43.7765 38.1525ZM38.1021 32.7037C37.7027 33.166 37.0191 33.2131 36.5744 32.7979C36.1297 32.3827 36.0844 31.6722 36.4838 31.2099C39.7287 27.4048 41.3717 23.4327 41.314 19.4606C41.2564 15.5913 39.5516 11.6792 36.1009 7.8783C35.685 7.43315 35.7138 6.72263 36.1462 6.29032C36.5744 5.85802 37.258 5.88798 37.6739 6.33741C41.5117 10.5706 43.3936 14.9921 43.4677 19.4264C43.5418 23.9677 41.7052 28.4491 38.0898 32.6866L38.1021 32.7037ZM33.1525 27.4219C32.7819 27.9013 32.1024 27.9783 31.6412 27.5931C31.18 27.2079 31.1059 26.5016 31.4765 26.0222C33.1072 23.942 33.9514 21.7249 33.9514 19.5248C33.9514 17.3676 33.1648 15.1804 31.5054 13.0874C31.1347 12.608 31.1924 11.9017 31.6701 11.5165C32.1313 11.1313 32.8107 11.1912 33.1813 11.6877C35.1538 14.2002 36.1132 16.8796 36.1009 19.542C36.0844 22.2813 35.0796 24.965 33.136 27.4561L33.1525 27.4219ZM25.4933 23.6938C25.1433 23.6938 24.7892 23.6638 24.4391 23.5996C23.8874 23.437 23.3726 23.163 22.9361 22.7907C22.8373 22.7051 22.7385 22.6152 22.6479 22.521C21.9067 21.7506 21.4619 20.7019 21.4619 19.5334C21.4619 18.3649 21.9231 17.3162 22.6479 16.5458C23.3891 15.7753 24.398 15.3131 25.5221 15.3131C26.6463 15.3131 27.6552 15.7925 28.3964 16.5458C29.1376 17.3162 29.5823 18.3649 29.5823 19.5334C29.5823 20.1797 29.4423 20.7918 29.1911 21.3397C28.4787 22.902 27.1528 23.6981 25.4933 23.6938Z" fill="#BF151E"/>
</g>
</g>
<defs>
<clipPath id="clip0_157_2012">
<rect width="50.6" height="38" fill="white" transform="translate(0.216797 0.546875)"/>
</clipPath>
</defs>
</svg>
