<svg width="173" height="52" viewBox="0 0 173 52" fill="none" xmlns="http://www.w3.org/2000/svg">
<g id="Badge/Google Play">
<rect width="173" height="52" rx="4" fill="#E0E0E0"/>
<path id="Google Play" fill-rule="evenodd" clip-rule="evenodd" d="M65.2328 14.771C65.2698 15.588 64.9777 16.3848 64.4247 16.9754C63.8068 17.6321 62.9449 17.9888 62.0545 17.9563C60.6888 17.9454 59.4625 17.098 58.9427 15.8059C58.4229 14.5138 58.7109 13.0288 59.6735 12.0376C60.299 11.3844 61.1609 11.0253 62.0545 11.0456C62.51 11.0441 62.9609 11.1379 63.3797 11.3212C63.7695 11.4821 64.1166 11.7351 64.3924 12.0597L63.8214 12.6438C63.3854 12.1133 62.731 11.8234 62.0545 11.8613C61.3745 11.8578 60.7225 12.138 60.2489 12.6371C59.7752 13.1363 59.5208 13.8113 59.5442 14.5065C59.5298 15.5571 60.1346 16.5134 61.0773 16.9305C62.0199 17.3476 63.1153 17.1435 63.8537 16.4133C64.1852 16.0457 64.3765 15.5685 64.3924 15.0686H62.0545V14.275H65.1897C65.2184 14.4387 65.2328 14.6047 65.2328 14.771ZM70.1672 12.0156H67.2582V14.1097H69.9086V14.9033H67.2582V16.9974H70.1672V17.8131H66.3963V11.1999H70.1672V12.0156ZM73.7009 17.8131H72.8714V12.0156H71.0614V11.1999H75.554V12.0156H73.7009V17.8131ZM78.7215 17.8131V11.1999H79.5511V17.8131H78.7215ZM83.2357 17.8131H82.4062V12.0156H80.5962V11.1999H85.035V12.0156H83.2357V17.8131ZM93.4493 16.9534C92.1381 18.2873 90.02 18.2873 88.7088 16.9534C87.4378 15.577 87.4378 13.425 88.7088 12.0486C89.3358 11.4025 90.189 11.0391 91.079 11.0391C91.969 11.0391 92.8222 11.4025 93.4493 12.0486C94.7257 13.4228 94.7257 15.5792 93.4493 16.9534ZM89.3229 16.4023C90.294 17.3915 91.8641 17.3915 92.8352 16.4023C93.7889 15.3267 93.7889 13.6863 92.8352 12.6107C91.8641 11.6215 90.294 11.6215 89.3229 12.6107C88.3692 13.6863 88.3692 15.3267 89.3229 16.4023ZM95.5717 17.8131V11.1999H96.5844L99.7304 16.3472V11.1999H100.56V17.8131H99.6981L96.4121 12.4234V17.8131H95.5717ZM87.556 27.4572C88.7794 27.4332 89.96 27.9182 90.8272 28.8013C91.6945 29.6844 92.1742 30.8898 92.1564 32.1415C92.1564 34.7257 90.1107 36.8217 87.5847 36.8257C85.0587 36.8298 83.0067 34.7403 82.9987 32.1561C82.9908 29.5719 85.03 27.4694 87.556 27.4572ZM87.556 34.9851C88.2706 34.9682 88.9483 34.6566 89.4351 34.1212C89.922 33.5858 90.1768 32.8719 90.1417 32.1415C90.1389 30.9739 89.4388 29.9267 88.3761 29.5007C87.3134 29.0748 86.1043 29.3567 85.3269 30.2116C84.5495 31.0665 84.362 32.3207 84.854 33.3742C85.346 34.4278 86.4175 35.0666 87.556 34.9851ZM77.5256 27.4572H77.5149C78.7383 27.4332 79.9188 27.9182 80.7861 28.8013C81.6533 29.6844 82.133 30.8898 82.1153 32.1415C82.1153 34.7271 80.0674 36.8237 77.54 36.8258C75.0126 36.8278 72.9615 34.7344 72.9576 32.1488C72.9536 29.5632 74.9982 27.4633 77.5256 27.4572ZM77.5256 34.9851H77.5149C78.2295 34.9682 78.9071 34.6566 79.394 34.1212C79.8808 33.5858 80.1356 32.8719 80.1006 32.1415C80.0975 30.973 79.3959 29.9253 78.3319 29.5003C77.2679 29.0753 76.058 29.3595 75.2818 30.2167C74.5056 31.074 74.321 32.3298 74.8164 33.3827C75.3119 34.4355 76.3865 35.0712 77.5256 34.9851ZM65.5775 28.9011L72.1172 28.846C72.1923 29.2566 72.2284 29.6737 72.2249 30.0914C72.2756 31.8062 71.673 33.4739 70.5442 34.7426C69.2543 36.1244 67.4433 36.8679 65.5775 36.7817C62.9692 36.8855 60.5143 35.5212 59.1799 33.226C57.8455 30.9308 57.8455 28.0727 59.1799 25.7775C60.5143 23.4824 62.9692 22.118 65.5775 22.2218C67.4098 22.2056 69.1705 22.9491 70.458 24.2829L69.0898 25.6827C68.1457 24.7503 66.8788 24.239 65.5668 24.2609C62.7107 24.2609 60.3953 26.6295 60.3953 29.5514C60.3953 32.4732 62.7107 34.8418 65.5668 34.8418C66.9098 34.8966 68.2128 34.3682 69.1544 33.387C69.7791 32.7012 70.1588 31.8194 70.2318 30.885H65.5775V28.9011ZM114.393 30.4441L114.62 30.9401L108.489 33.5302C108.874 34.4254 109.754 34.9893 110.709 34.9521C111.631 34.9545 112.486 34.4604 112.961 33.6515L114.523 34.7537C113.672 36.0558 112.24 36.8342 110.709 36.8258C109.492 36.844 108.32 36.3553 107.463 35.4718C106.605 34.5884 106.136 33.3862 106.162 32.1415C106.088 30.9253 106.509 29.7317 107.325 28.8443C108.142 27.9569 109.281 27.4548 110.472 27.4572C112.258 27.5245 113.818 28.7128 114.393 30.4441ZM108.145 32.0092L112.239 30.2678C111.917 29.6182 111.247 29.2279 110.536 29.2758C109.863 29.3069 109.229 29.6142 108.779 30.1284C108.329 30.6427 108.101 31.3205 108.145 32.0092ZM103.167 36.5502V22.7729H105.182V36.5502H103.167ZM99.8704 28.5043V27.7327H101.724V36.0763C101.724 39.5372 99.7735 40.959 97.414 40.959C95.6355 40.9698 94.0286 39.8753 93.3523 38.1925L95.1084 37.443C95.4755 38.4251 96.3865 39.0827 97.414 39.1073C98.9223 39.1073 99.8597 38.1484 99.8597 36.3518V35.6795H99.795C99.1896 36.394 98.3059 36.7976 97.3817 36.7817C94.9362 36.6604 93.0144 34.5966 93.0144 32.0919C93.0144 29.5871 94.9362 27.5234 97.3817 27.4021C98.3029 27.4009 99.1809 27.8018 99.795 28.5043H99.8704ZM97.5648 34.9851H97.5541C98.2543 34.9576 98.913 34.6381 99.377 34.1009C99.841 33.5638 100.07 32.8558 100.01 32.1415C100.064 31.4305 99.834 30.7276 99.3736 30.1923C98.9132 29.6569 98.261 29.3344 97.5648 29.2978C96.1243 29.4277 95.0194 30.662 95.0194 32.1415C95.0194 33.6209 96.1243 34.8552 97.5648 34.9851ZM123.842 22.7729C125.407 22.6579 126.904 23.4469 127.721 24.8175C128.538 26.1881 128.538 27.9107 127.721 29.2813C126.904 30.6519 125.407 31.4409 123.842 31.3259H121.03V36.5502H119.015V22.7729H123.842ZM123.831 29.386L123.874 29.4191C125.151 29.4191 126.185 28.3606 126.185 27.0549C126.185 25.7492 125.151 24.6907 123.874 24.6907H121.019V29.386H123.831ZM136.253 27.4021L136.307 27.4352C138.602 27.4352 140.391 28.8349 140.391 31.2487V36.5502H138.451V35.448H138.387C137.826 36.3394 136.834 36.8466 135.801 36.7707C134.962 36.8341 134.134 36.5478 133.505 35.9769C132.876 35.406 132.5 34.599 132.461 33.7397C132.461 31.7447 134.411 30.6425 136.34 30.6425C137.072 30.6393 137.793 30.8211 138.441 31.1716V31.0283C138.389 30.4988 138.132 30.0126 137.727 29.6789C137.322 29.3452 136.802 29.192 136.286 29.2538C135.533 29.1908 134.815 29.5885 134.454 30.2678L132.666 29.5073C133.345 28.1373 134.755 27.3104 136.253 27.4021ZM136.006 34.9521L136.06 34.9851C137.273 34.9549 138.28 34.0146 138.419 32.7808C137.86 32.4616 137.227 32.3017 136.587 32.3178C135.575 32.3178 134.433 32.6816 134.433 33.7837C134.433 34.6104 135.348 34.9521 136.006 34.9521ZM147.458 27.7327H149.699L144.183 40.7275H142.082L144.129 36.0873L140.541 27.7327H142.696L145.088 33.7066H145.153L147.458 27.7327ZM129.347 36.5502V22.7729H131.362V36.5502H129.347ZM49.5727 25.0824C49.8451 25.2399 50.0078 25.5218 50.0078 25.8364C50.0078 26.151 49.845 26.4329 49.5727 26.5899L44.6293 29.4432L41.159 26.0887L44.956 22.4184L49.5727 25.0824ZM44.1724 21.9656L40.5334 25.4837L27.9577 13.3271L39.092 19.0328L44.1724 21.9656ZM28.1426 38.6711L40.5334 26.6937L43.8457 29.8959L39.1111 32.629L28.1426 38.6711ZM27.2149 13.8192L39.9076 26.0885L27.2031 38.3696L27.2149 13.8192Z" fill="#828282"/>
</g>
</svg>
