<svg width="20" height="16" viewBox="0 0 20 16" fill="none" xmlns="http://www.w3.org/2000/svg">
<path id="Vector" d="M1.11111 16H18.8889C19.5 16 20 15.4 20 14.6667C20 13.9333 19.5 13.3333 18.8889 13.3333H1.11111C0.5 13.3333 0 13.9333 0 14.6667C0 15.4 0.5 16 1.11111 16ZM1.11111 9.33333H18.8889C19.5 9.33333 20 8.73333 20 8C20 7.26667 19.5 6.66667 18.8889 6.66667H1.11111C0.5 6.66667 0 7.26667 0 8C0 8.73333 0.5 9.33333 1.11111 9.33333ZM0 1.33333C0 2.06667 0.5 2.66667 1.11111 2.66667H18.8889C19.5 2.66667 20 2.06667 20 1.33333C20 0.6 19.5 0 18.8889 0H1.11111C0.5 0 0 0.6 0 1.33333Z" fill="#BF151E"/>
</svg>
