<svg width="158" height="64" viewBox="0 0 158 64" fill="none" xmlns="http://www.w3.org/2000/svg">
<g id="Group 829 1" clip-path="url(#clip0_157_2688)">
<g id="Group 829">
<path id="Path 2910" d="M18.3256 53.8678C17.0731 53.9044 15.8213 53.7745 14.6031 53.4814C13.3897 53.2824 12.2301 52.8362 11.1964 52.1705C10.1626 51.5047 9.27672 50.6336 8.59366 49.6112C7.6188 48.1347 6.674 46.654 5.82099 45.1041C3.34628 40.597 4.75182 36.6025 7.30832 32.7205C7.48735 32.4285 7.75671 32.2028 8.07557 32.0777C8.39442 31.9525 8.74538 31.9347 9.07526 32.027C11.5975 32.4109 14.1248 32.7714 16.6596 33.0636C16.9943 33.0615 17.3213 33.1633 17.5956 33.3549C17.87 33.5466 18.0781 33.8187 18.1912 34.1336C19.7138 37.5969 21.5746 40.9014 23.7466 43.999C23.9871 44.2962 24.1283 44.6614 24.1502 45.0432C24.172 45.4249 24.0735 45.8038 23.8684 46.1265C22.9028 47.9475 22.0661 49.834 21.3645 51.7721C20.7919 53.4781 19.994 54.4037 18.3256 53.8678Z" fill="#BF151E"/>
<path id="Path 2921" d="M31.94 3.3125C32.8222 3.36007 33.7053 3.39179 34.5858 3.45939C39.4509 3.83331 41.9782 7.2228 44.2443 10.9528C44.6482 11.6205 44.4254 12.0929 43.9638 12.653C42.2489 14.7357 40.5696 16.8476 38.9259 18.9887C38.7675 19.2301 38.5406 19.4187 38.2743 19.5304C38.0079 19.6421 37.7144 19.6717 37.4311 19.6155C33.8161 19.2284 30.1707 19.2167 26.5532 19.5805C26.2443 19.6366 25.9257 19.5998 25.6378 19.4747C25.3498 19.3496 25.1055 19.1418 24.9357 18.8777C23.3916 16.7861 21.8089 14.7232 20.1874 12.6889C19.9469 12.4489 19.7947 12.1344 19.7559 11.7968C19.7171 11.4592 19.7939 11.1184 19.9738 10.8301C21.1207 8.53931 22.7378 6.51609 24.7195 4.89248C26.1735 3.71313 28.0038 3.69977 29.7324 3.43102C30.4659 3.36913 31.203 3.36299 31.9375 3.41265L31.94 3.3125Z" fill="#BF151E"/>
<path id="Path 2912" d="M7.82006 25.9261C7.82006 25.6323 7.83341 25.3368 7.82006 25.0439C7.45449 18.0521 10.8039 15.8929 16.9494 13.0492C17.1274 12.9455 17.3248 12.8793 17.5294 12.8546C17.734 12.83 17.9415 12.8474 18.1391 12.9059C18.3367 12.9643 18.5203 13.0626 18.6786 13.1946C18.8368 13.3266 18.9664 13.4896 19.0593 13.6736C20.5283 15.6951 22.0707 17.664 23.6148 19.6304C24.0221 20.1495 24.1991 20.5351 23.7325 21.1586C21.5992 24.0951 19.7887 27.253 18.3324 30.5775C18.2885 30.7502 18.2102 30.9123 18.1021 31.054C17.994 31.1957 17.8584 31.314 17.7034 31.402C17.5484 31.4899 17.3773 31.5456 17.2002 31.5657C17.0231 31.5858 16.8439 31.5699 16.6731 31.519C14.2084 31.1226 11.7262 30.8338 9.24479 30.5442C9.04875 30.5518 8.85343 30.5161 8.67273 30.4397C8.49204 30.3632 8.3304 30.2479 8.19933 30.1019C8.06825 29.956 7.97095 29.7829 7.91434 29.5951C7.85773 29.4072 7.84321 29.2092 7.8718 29.0151C7.89351 27.9868 7.87681 26.9569 7.87681 25.9269L7.82006 25.9261Z" fill="#FFAC1D"/>
<path id="Path 2913" d="M31.8175 59.8596C29.4989 59.4038 27.3031 58.462 25.3749 57.0961C20.9162 53.9144 21.7526 55.0445 23.4051 50.6986C23.9059 49.374 24.6362 48.1354 25.1779 46.8233C25.2163 46.6599 25.2869 46.5057 25.3857 46.37C25.4844 46.2342 25.6093 46.1195 25.753 46.0327C25.8966 45.9458 26.0562 45.8885 26.2224 45.8642C26.3885 45.8399 26.5578 45.849 26.7203 45.891C30.2371 46.2435 33.7836 46.1669 37.2819 45.6632C38.0272 45.5797 38.4504 45.7024 38.7317 46.4644C39.5863 48.8106 40.517 51.1284 41.3908 53.4679C41.5744 53.9595 41.8282 54.5529 41.3599 54.9928C38.7639 57.5696 35.4277 59.2712 31.8175 59.8596Z" fill="#FFAC1D"/>
<path id="Path 2914" d="M0.382812 33.16C0.411555 28.2827 1.49164 23.469 3.54943 19.0471C4.41329 17.1983 4.84063 17.1274 6.48821 18.1966C6.70469 18.3042 6.87408 18.4876 6.96424 18.712C7.05441 18.9363 7.05906 19.1859 6.97731 19.4135C6.10912 23.049 5.99549 26.8239 6.64345 30.505C6.67744 30.6949 6.66416 30.8903 6.60477 31.0738C6.54538 31.2574 6.44171 31.4235 6.30292 31.5575C4.64827 33.6441 3.56657 36.1262 3.16466 38.7588C3.00942 39.6769 2.74318 39.8388 1.96028 39.2746C1.58127 39.0482 1.26103 38.7356 1.02564 38.3622C0.790253 37.9887 0.64636 37.565 0.60566 37.1254C0.522196 35.8042 0.452922 34.4812 0.382812 33.16Z" fill="#030B40"/>
<path id="Path 2915" d="M28.5736 63.9695C22.3146 63.4395 16.3702 60.9967 11.547 56.9727C11.1397 56.6388 10.6481 56.3233 10.5512 55.7433C10.4544 55.1632 10.1982 54.4813 10.598 54.0339C11.0579 53.5181 11.5611 54.1541 12.0169 54.3202C14.4712 55.2011 17.0767 55.583 19.6805 55.4436C20.0395 55.413 20.4009 55.4627 20.7383 55.5891C21.0757 55.7156 21.3807 55.9157 21.6311 56.1748C23.7633 58.2206 26.3316 59.7564 29.1429 60.6668C30.5617 61.1125 31.0625 61.8119 30.7354 63.1924C30.4065 64.618 29.2497 63.5597 28.5736 63.9695Z" fill="#030B40"/>
<path id="Path 2916" d="M23.8501 3.38906C23.8501 3.74545 23.5354 3.86731 23.3242 4.04759C21.2648 5.81273 19.6153 8.00598 18.4908 10.4743C18.4236 10.6841 18.3029 10.8726 18.1406 11.0215C17.9783 11.1703 17.78 11.2743 17.5652 11.3232C14.0355 12.0151 11.3179 14.1409 8.84489 16.5438C7.65803 17.6973 7.02036 16.6815 6.20408 16.2934C5.22171 15.8269 5.84685 15.1116 6.09891 14.5465C6.73493 13.2123 7.5999 11.9998 8.65458 10.9643C12.1159 7.38217 16.3584 4.64852 21.0507 2.97674C21.4059 2.80657 21.7931 2.7136 22.1869 2.70396C22.5806 2.69432 22.972 2.76823 23.3351 2.92082C23.5462 3.02348 23.7991 3.10027 23.8501 3.38906Z" fill="#030B40"/>
<path id="Path 2917" d="M42.0568 2.83594C42.3122 2.90521 42.5526 2.95446 42.7821 3.03542C48.9617 5.16434 54.2572 9.2891 57.834 14.7596C58.1746 15.2687 59.0184 15.9723 58.162 16.6159C57.2924 17.2694 56.3926 17.8177 55.2809 16.5933C53.0403 14.2945 50.2393 12.6194 47.154 11.7332C46.829 11.6553 46.5272 11.501 46.2737 11.2833C46.0201 11.0656 45.8221 10.7907 45.6958 10.4812C44.6384 8.31222 43.147 6.38335 41.314 4.81403C40.9225 4.44345 40.0729 4.16301 40.3491 3.55038C40.5995 2.99534 41.455 3.03709 42.0568 2.83594Z" fill="#030B40"/>
<path id="Path 2918" d="M35.0461 63.9283C34.6291 63.9571 34.2105 63.9532 33.7941 63.9166C33.2157 63.8089 32.2509 64.2805 32.3134 63.0878C32.3577 62.2381 32.0297 61.3476 33.5153 61.068C36.6065 60.4083 39.4536 58.9029 41.739 56.7195C42.0295 56.4297 42.3753 56.2015 42.7559 56.0483C43.1365 55.8951 43.544 55.8203 43.9542 55.8281C46.6065 55.9296 49.2559 55.5622 51.7806 54.743C52.7429 54.3992 52.7688 54.91 52.6612 55.5835C52.5804 56.2243 52.2506 56.8075 51.743 57.2069C46.7452 61.0671 41.285 63.7563 35.0461 63.9283Z" fill="#030B40"/>
<path id="Path 2919" d="M8.83952 54.0949C5.80894 51.5718 2.03219 44.6752 1.68164 41.0938C2.38608 41.2398 2.94696 41.4543 3.16396 42.2714C4.18964 45.8213 5.99944 49.0954 8.45976 51.8523C9.16336 52.6852 9.15585 52.6919 8.83952 54.0949Z" fill="#030B40"/>
<path id="Path 2920" d="M24.8418 1.72155C29.6448 0.639524 34.6348 0.700988 39.4096 1.90099C38.9464 2.75566 38.3563 2.71476 37.631 2.51779C34.0587 1.55989 30.3031 1.51312 26.708 2.38175C26.0412 2.53532 25.3484 2.79239 24.8418 1.72155Z" fill="#030B40"/>
<g id="Group 828">
<g id="Group 827">
<path id="Path 2921_2" d="M37.5809 27.6836H31.5339V30.9996H36.8806V34.0811H31.5339V37.6767H37.5809V40.8759H27.541V24.4844H37.5809V27.6836Z" fill="#030B40"/>
<path id="Path 2922" d="M43.4675 24.4844V37.7936H48.6974V40.8751H39.4746V24.4844H43.4675Z" fill="#030B40"/>
<path id="Path 2923" d="M49.9129 24.4844H54.6287L59.2284 35.8355L63.7813 24.4844H68.4745V40.8759H64.4816V31.0455L60.8159 40.8759H57.5941L53.905 31.023V40.8759H49.9121L49.9129 24.4844Z" fill="#030B40"/>
<path id="Path 2924" d="M80.8516 37.9805H74.7387L73.758 40.8759H69.5781L75.5082 24.4844H80.1313L86.0614 40.8759H81.8331L80.8516 37.9805ZM77.7926 28.8971L75.7845 34.8982H79.8242L77.7926 28.8971Z" fill="#030B40"/>
<path id="Path 2925" d="M86.2715 24.4844H98.9497V27.6836H94.6095V40.8759H90.6166V27.6836H86.2765L86.2715 24.4844Z" fill="#030B40"/>
<path id="Path 2926" d="M107.823 24.2969C111.722 24.2969 114.667 26.4911 115.599 30.0409H111.208C110.909 29.3895 110.423 28.8418 109.812 28.4676C109.201 28.0933 108.492 27.9094 107.776 27.9392C105.324 27.9392 103.643 29.7604 103.643 32.6558C103.643 35.5512 105.324 37.3724 107.776 37.3724C108.492 37.4022 109.201 37.2183 109.812 36.844C110.423 36.4698 110.909 35.9221 111.208 35.2707H115.599C114.665 38.8196 111.722 40.9914 107.823 40.9914C102.99 40.9914 99.5801 37.5585 99.5801 32.6558C99.5801 27.7531 102.99 24.2969 107.823 24.2969Z" fill="#030B40"/>
<path id="Path 2927" d="M127.555 34.1278H121.345V40.8759H117.352V24.4844H121.345V30.9053H127.555V24.4844H131.548V40.8759H127.555V34.1278Z" fill="#030B40"/>
<path id="Path 2928" d="M143.761 27.6836H137.716V30.9996H143.057V34.0811H137.716V37.6767H143.763V40.8759H133.723V24.4844H143.763L143.761 27.6836Z" fill="#030B40"/>
<path id="Path 2929" d="M151.584 41.038C148.058 41.038 145.302 39.2852 145.186 35.9709H149.435C149.436 36.23 149.49 36.4861 149.595 36.7232C149.699 36.9603 149.852 37.1733 150.042 37.3487C150.233 37.5241 150.458 37.6581 150.703 37.7425C150.948 37.8268 151.208 37.8596 151.466 37.8388C152.635 37.8388 153.381 37.2545 153.381 36.2972C153.381 33.2624 145.185 34.8967 145.231 29.0826C145.231 25.9769 147.776 24.25 151.209 24.25C154.781 24.25 157.187 26.0244 157.35 29.1535H153.03C153.022 28.9162 152.965 28.6831 152.865 28.468C152.764 28.2529 152.621 28.0601 152.445 27.9012C152.268 27.7423 152.062 27.6204 151.837 27.5427C151.613 27.4651 151.375 27.4333 151.138 27.4492C150.926 27.4153 150.708 27.429 150.502 27.4893C150.295 27.5496 150.105 27.655 149.944 27.798C149.783 27.9409 149.656 28.1178 149.572 28.3159C149.488 28.5139 149.449 28.7282 149.457 28.9432C149.457 31.7918 157.56 30.5081 157.56 35.9951C157.561 38.7494 155.412 41.038 151.584 41.038Z" fill="#030B40"/>
</g>
</g>
</g>
</g>
<defs>
<clipPath id="clip0_157_2688">
<rect width="157.176" height="63.0154" fill="white" transform="translate(0.382812 0.953125)"/>
</clipPath>
</defs>
</svg>
