<svg width="234" height="94" viewBox="0 0 234 94" fill="none" xmlns="http://www.w3.org/2000/svg">
<g id="Group 829 2" clip-path="url(#clip0_157_2041)">
<g id="Group 829">
<path id="Path 2910" d="M26.6228 78.5165C24.7644 78.5708 22.9071 78.378 21.0995 77.9431C19.2991 77.648 17.5786 76.9859 16.0447 75.998C14.5109 75.0102 13.1964 73.7176 12.1829 72.2006C10.7364 70.0099 9.33457 67.8129 8.06892 65.5132C4.39703 58.8258 6.48251 52.8988 10.2758 47.1389C10.5414 46.7056 10.9411 46.3707 11.4142 46.185C11.8873 45.9993 12.408 45.9729 12.8975 46.1098C16.64 46.6795 20.3899 47.2144 24.1509 47.6479C24.6474 47.6448 25.1327 47.7959 25.5397 48.0802C25.9467 48.3646 26.2555 48.7683 26.4234 49.2356C28.6825 54.3743 31.4435 59.2774 34.6662 63.8736C35.0232 64.3145 35.2327 64.8564 35.2651 65.4228C35.2976 65.9892 35.1513 66.5514 34.8471 67.0303C33.4142 69.7321 32.1728 72.5312 31.1318 75.4069C30.2823 77.9382 29.0984 79.3116 26.6228 78.5165Z" fill="white"/>
<path id="Path 2921" d="M46.8195 3.5C48.1285 3.57059 49.4387 3.61764 50.7452 3.71795C57.9639 4.27276 61.7138 9.30196 65.0761 14.8364C65.6755 15.8271 65.3448 16.5281 64.66 17.359C62.1155 20.4493 59.6238 23.5829 57.1849 26.7598C56.9498 27.118 56.6131 27.3979 56.218 27.5636C55.8229 27.7292 55.3872 27.7732 54.967 27.6899C49.6031 27.1155 44.1942 27.098 38.8268 27.6379C38.3684 27.7211 37.8957 27.6665 37.4684 27.4809C37.0412 27.2953 36.6786 26.987 36.4267 26.5951C34.1357 23.4917 31.7872 20.4307 29.3814 17.4123C29.0244 17.0562 28.7987 16.5896 28.7411 16.0887C28.6836 15.5878 28.7975 15.0822 29.0644 14.6544C30.7662 11.2554 33.1656 8.25337 36.106 5.84432C38.2633 4.09444 40.9791 4.07462 43.5439 3.67585C44.6322 3.58403 45.726 3.57492 46.8157 3.6486L46.8195 3.5Z" fill="white"/>
<path id="Path 2912" d="M11.0402 37.0439C11.0402 36.608 11.06 36.1696 11.0402 35.7349C10.4978 25.3608 15.4675 22.157 24.5859 17.9377C24.8501 17.7838 25.143 17.6855 25.4466 17.6489C25.7502 17.6123 26.058 17.6382 26.3513 17.725C26.6445 17.8117 26.9168 17.9575 27.1516 18.1534C27.3864 18.3493 27.5787 18.5911 27.7166 18.8641C29.8962 21.8635 32.1848 24.7849 34.4759 27.7026C35.0802 28.4729 35.3428 29.045 34.6505 29.9701C31.4852 34.3272 28.7989 39.0127 26.638 43.9456C26.5729 44.2018 26.4567 44.4423 26.2963 44.6525C26.1359 44.8627 25.9347 45.0383 25.7048 45.1688C25.4748 45.2993 25.2208 45.382 24.9581 45.4118C24.6954 45.4416 24.4294 45.4181 24.176 45.3425C20.519 44.7543 16.836 44.3258 13.1542 43.896C12.8633 43.9073 12.5735 43.8544 12.3054 43.741C12.0373 43.6276 11.7974 43.4565 11.6029 43.2399C11.4084 43.0233 11.2641 42.7665 11.1801 42.4878C11.0961 42.2091 11.0745 41.9153 11.117 41.6273C11.1492 40.1016 11.1244 38.5734 11.1244 37.0452L11.0402 37.0439Z" fill="white"/>
<path id="Path 2913" d="M46.6462 87.4023C43.206 86.7261 39.948 85.3286 37.0869 83.3019C30.4714 78.5811 31.7122 80.2579 34.1643 73.8095C34.9073 71.8441 35.991 70.0063 36.7947 68.0596C36.8516 67.817 36.9564 67.5883 37.1029 67.3869C37.2494 67.1854 37.4347 67.0152 37.6479 66.8864C37.8611 66.7575 38.0979 66.6725 38.3444 66.6365C38.5909 66.6004 38.8421 66.6139 39.0833 66.6763C44.3013 67.1991 49.5635 67.0856 54.7541 66.3382C55.86 66.2143 56.4879 66.3964 56.9052 67.527C58.1734 71.0082 59.5542 74.4473 60.8508 77.9185C61.1233 78.648 61.4997 79.5285 60.805 80.1811C56.953 84.0045 52.0029 86.5292 46.6462 87.4023Z" fill="white"/>
<path id="Path 2914" d="M0 47.7826C0.0426469 40.5459 1.64523 33.4035 4.69852 26.8424C5.98027 24.0993 6.61435 23.994 9.05898 25.5804C9.38018 25.7402 9.63151 26.0123 9.7653 26.3452C9.89908 26.678 9.90598 27.0484 9.78468 27.386C8.49649 32.7802 8.32789 38.3813 9.28931 43.8433C9.33974 44.125 9.32004 44.4149 9.23192 44.6873C9.1438 44.9596 8.98998 45.2061 8.78405 45.4049C6.32894 48.5009 4.72394 52.1838 4.12761 56.0899C3.89727 57.4522 3.50222 57.6924 2.3406 56.8552C1.77822 56.5194 1.30307 56.0556 0.953808 55.5014C0.604546 54.9473 0.391043 54.3186 0.330654 53.6663C0.206812 51.7059 0.104026 49.743 0 47.7826Z" fill="white"/>
<path id="Path 2915" d="M41.8219 93.5045C32.535 92.7182 23.7148 89.0937 16.5583 83.123C15.954 82.6276 15.2246 82.1595 15.0809 81.2988C14.9373 80.4381 14.5571 79.4263 15.1503 78.7625C15.8326 77.9972 16.5794 78.9408 17.2556 79.1873C20.8972 80.4943 24.7631 81.061 28.6266 80.8542C29.1593 80.8087 29.6955 80.8824 30.1961 81.0701C30.6967 81.2577 31.1493 81.5546 31.5208 81.939C34.6846 84.9746 38.4953 87.2534 42.6665 88.6041C44.7718 89.2655 45.5149 90.3032 45.0294 92.3516C44.5415 94.4668 42.825 92.8965 41.8219 93.5045Z" fill="white"/>
<path id="Path 2916" d="M34.8188 3.6037C34.8188 4.1325 34.3519 4.31331 34.0386 4.58081C30.9828 7.19986 28.5354 10.4541 26.867 14.1166C26.7672 14.4278 26.5881 14.7076 26.3473 14.9284C26.1065 15.1493 25.8122 15.3036 25.4936 15.376C20.2563 16.4027 16.2241 19.5569 12.5547 23.1223C10.7936 24.8338 9.84749 23.3266 8.63632 22.7508C7.17871 22.0585 8.10627 20.9972 8.48027 20.1588C9.42397 18.179 10.7074 16.3801 12.2723 14.8435C17.4081 9.52853 23.7029 5.47245 30.6652 2.99192C31.1922 2.73943 31.7668 2.60148 32.351 2.58718C32.9353 2.57287 33.5159 2.68254 34.0547 2.90895C34.368 3.06127 34.7433 3.17521 34.8188 3.6037Z" fill="white"/>
<path id="Path 2917" d="M61.8291 2.79688C62.208 2.89966 62.5647 2.97273 62.9053 3.09285C72.0744 6.25168 79.9316 12.3718 85.2388 20.4888C85.744 21.2442 86.9961 22.2882 85.7255 23.243C84.435 24.2127 83.1 25.0263 81.4505 23.2096C78.126 19.7987 73.9699 17.3133 69.3921 15.9983C68.9099 15.8827 68.4621 15.6539 68.0859 15.3308C67.7097 15.0078 67.4158 14.5998 67.2285 14.1407C65.6596 10.9224 63.4467 8.06041 60.7269 5.7319C60.1461 5.18205 58.8854 4.76593 59.2953 3.85694C59.6668 3.0334 60.9362 3.09533 61.8291 2.79688Z" fill="white"/>
<path id="Path 2918" d="M51.4378 93.4329C50.8191 93.4757 50.198 93.4699 49.5802 93.4155C48.7219 93.2558 47.2903 93.9555 47.3832 92.1858C47.4488 90.9251 46.9622 89.6037 49.1665 89.1889C53.7531 88.2101 57.9775 85.9764 61.3686 82.7367C61.7995 82.3068 62.3126 81.9681 62.8773 81.7409C63.442 81.5136 64.0467 81.4025 64.6553 81.4141C68.5907 81.5647 72.5219 81.0197 76.2679 79.8042C77.6958 79.294 77.7342 80.0518 77.5744 81.0512C77.4547 82.002 76.9653 82.8674 76.2122 83.46C68.7966 89.1876 60.6949 93.1778 51.4378 93.4329Z" fill="white"/>
<path id="Path 2919" d="M12.5425 78.8454C8.04582 75.1017 2.44201 64.8687 1.92188 59.5547C2.96709 59.7714 3.79931 60.0897 4.12129 61.3021C5.64316 66.5692 8.32847 71.4273 11.979 75.5178C13.023 76.7537 13.0118 76.7636 12.5425 78.8454Z" fill="white"/>
<path id="Path 2920" d="M36.2891 1.14016C43.4155 -0.46531 50.8195 -0.374112 57.9043 1.40641C57.217 2.67454 56.3414 2.61386 55.2652 2.32159C49.9647 0.900304 44.3924 0.830907 39.0581 2.11974C38.0686 2.34761 37.0408 2.72904 36.2891 1.14016Z" fill="white"/>
<g id="Group 828">
<g id="Group 827">
<path id="Path 2921_2" d="M55.1898 39.6453H46.2175V44.5655H54.1508V49.1377H46.2175V54.4728H55.1898V59.2196H40.293V34.8984H55.1898V39.6453Z" fill="white"/>
<path id="Path 2922" d="M63.9246 34.8984V54.6461H71.6844V59.2183H58V34.8984H63.9246Z" fill="white"/>
<path id="Path 2923" d="M73.4856 34.8984H80.4826L87.3075 51.7408L94.063 34.8984H101.027V59.2196H95.1021V44.6336L89.663 59.2196H84.8827L79.4089 44.6001V59.2196H73.4844L73.4856 34.8984Z" fill="white"/>
<path id="Path 2924" d="M119.391 54.9313H110.321L108.866 59.2274H102.664L111.463 34.9062H118.323L127.121 59.2274H120.848L119.391 54.9313ZM114.852 41.4537L111.873 50.3579H117.867L114.852 41.4537Z" fill="white"/>
<path id="Path 2925" d="M127.43 34.8984H146.241V39.6453H139.801V59.2196H133.877V39.6453H127.437L127.43 34.8984Z" fill="white"/>
<path id="Path 2926" d="M159.41 34.625C165.196 34.625 169.565 37.8808 170.947 43.1477H164.433C163.99 42.1813 163.269 41.3686 162.362 40.8133C161.455 40.258 160.403 39.9851 159.341 40.0294C155.702 40.0294 153.208 42.7316 153.208 47.0277C153.208 51.3237 155.702 54.0259 159.341 54.0259C160.403 54.0702 161.455 53.7973 162.362 53.242C163.269 52.6867 163.99 51.8741 164.433 50.9076H170.947C169.562 56.1733 165.196 59.3957 159.41 59.3957C152.24 59.3957 147.18 54.3021 147.18 47.0277C147.18 39.7533 152.239 34.625 159.41 34.625Z" fill="white"/>
<path id="Path 2927" d="M188.69 49.207H179.475V59.2196H173.551V34.8984H179.475V44.4255H188.69V34.8984H194.615V59.2196H188.69V49.207Z" fill="white"/>
<path id="Path 2928" d="M212.738 39.6453H203.768V44.5655H211.694V49.1377H203.768V54.4728H212.742V59.2196H197.844V34.8984H212.742L212.738 39.6453Z" fill="white"/>
<path id="Path 2929" d="M224.345 59.4641C219.113 59.4641 215.025 56.8634 214.852 51.9457H221.156C221.158 52.3302 221.238 52.7102 221.394 53.062C221.549 53.4138 221.775 53.7298 222.058 53.99C222.341 54.2503 222.675 54.4492 223.038 54.5743C223.402 54.6995 223.787 54.7481 224.171 54.7172C225.904 54.7172 227.012 53.8504 227.012 52.4299C227.012 47.927 214.85 50.3518 214.92 41.7251C214.92 37.117 218.696 34.5547 223.789 34.5547C229.09 34.5547 232.659 37.1875 232.9 41.8304H226.491C226.478 41.4782 226.395 41.1323 226.245 40.8132C226.096 40.494 225.884 40.208 225.622 39.9722C225.361 39.7364 225.054 39.5555 224.721 39.4403C224.388 39.3251 224.035 39.2779 223.684 39.3015C223.369 39.2512 223.046 39.2715 222.74 39.361C222.433 39.4505 222.15 39.607 221.912 39.8191C221.673 40.0312 221.485 40.2936 221.36 40.5875C221.235 40.8813 221.177 41.1993 221.19 41.5183C221.19 45.745 233.212 43.8403 233.212 51.9816C233.214 56.0683 230.026 59.4641 224.345 59.4641Z" fill="white"/>
</g>
</g>
</g>
</g>
<defs>
<clipPath id="clip0_157_2041">
<rect width="233.213" height="93.5" fill="white"/>
</clipPath>
</defs>
</svg>
