<svg width="14" height="15" viewBox="0 0 14 15" fill="none" xmlns="http://www.w3.org/2000/svg">
<g id="solar:phone-outline">
<path id="Vector" fill-rule="evenodd" clip-rule="evenodd" d="M3.33906 1.68932C4.04897 0.983486 5.21797 1.1089 5.81239 1.9034L6.54856 2.88574C7.03272 3.53207 6.98956 4.43507 6.41497 5.00615L6.27614 5.14499C6.26046 5.20328 6.25886 5.26446 6.27147 5.32349C6.30822 5.56149 6.50714 6.06549 7.34014 6.89382C8.17314 7.72215 8.68064 7.92049 8.92214 7.95782C8.98293 7.97075 9.04594 7.96895 9.10589 7.95257L9.34389 7.71574C9.85489 7.20824 10.6389 7.11315 11.2712 7.45674L12.3854 8.0634C13.3403 8.5814 13.5812 9.87874 12.7996 10.6563L11.9706 11.48C11.7093 11.7396 11.3581 11.956 10.93 11.9962C9.87414 12.0948 7.41422 11.9688 4.82831 9.39807C2.41506 6.99824 1.95189 4.90524 1.89297 3.8739C1.86381 3.3524 2.10997 2.9114 2.42381 2.5999L3.33906 1.68932ZM5.11239 2.42782C4.81664 2.0329 4.26597 2.0014 3.95564 2.30999L3.03981 3.21999C2.84731 3.41132 2.75514 3.62249 2.76681 3.82432C2.81347 4.6439 3.18681 6.53215 5.44547 8.77799C7.81497 11.1335 10.0031 11.2041 10.8489 11.1247C11.0216 11.109 11.1931 11.0192 11.3535 10.8599L12.1818 10.0357C12.519 9.70082 12.4449 9.09065 11.9677 8.83165L10.8536 8.22557C10.5456 8.05874 10.1851 8.11357 9.96106 8.3364L9.69564 8.60065L9.38647 8.29032C9.69564 8.60065 9.69506 8.60124 9.69447 8.60124L9.69389 8.6024L9.69214 8.60415L9.68806 8.60765L9.67931 8.61582C9.65451 8.63846 9.62798 8.65913 9.59997 8.67765C9.55331 8.70857 9.49147 8.74299 9.41389 8.77157C9.25639 8.83049 9.04756 8.86199 8.78972 8.82232C8.28397 8.74474 7.61372 8.39999 6.72297 7.51449C5.83281 6.62899 5.48514 5.96282 5.40697 5.45765C5.36672 5.19982 5.39881 4.99099 5.45831 4.83349C5.4913 4.74497 5.53817 4.66227 5.59714 4.58849L5.61581 4.56807L5.62397 4.55932L5.62747 4.55582L5.62922 4.55407L5.63039 4.5529L5.79839 4.38607C6.04806 4.13699 6.08306 3.72457 5.84797 3.41015L5.11239 2.42782Z" fill="white"/>
</g>
</svg>
