<svg width="12" height="11" viewBox="0 0 12 11" fill="none" xmlns="http://www.w3.org/2000/svg">
<g id="Group">
<path id="Vector" d="M11 5.5C11 6.82608 10.4732 8.09785 9.53553 9.03553C8.59785 9.97322 7.32608 10.5 6 10.5C4.67392 10.5 3.40215 9.97322 2.46447 9.03553C1.52678 8.09785 1 6.82608 1 5.5M11 5.5C11 4.17392 10.4732 2.90215 9.53553 1.96447C8.59785 1.02678 7.32608 0.5 6 0.5C4.67392 0.5 3.40215 1.02678 2.46447 1.96447C1.52678 2.90215 1 4.17392 1 5.5M11 5.5H1" stroke="white" stroke-linecap="round" stroke-linejoin="round"/>
<path id="Vector_2" d="M7.92233 5.5C7.82787 7.32845 7.15439 9.0795 5.99925 10.5C4.84411 9.0795 4.17063 7.32845 4.07617 5.5C4.17063 3.67155 4.84411 1.9205 5.99925 0.5C7.15439 1.9205 7.82787 3.67155 7.92233 5.5Z" stroke="white" stroke-linecap="round" stroke-linejoin="round"/>
</g>
</svg>
